# xmcd
# Copyright (C) 1995-1998 Ti Kan
#
# Track frame offsets:
#       150
#       12846
#       24591
#       40361
#       50319
#       62349
#       72905
#       83932
#
# Disc length: 1323 seconds
#
# Revision: 0
# Processed by: cddbd v1.5.2PL0 Copyright (c) Steve Scherf et al.
# Submitted via: CD-Import v1.0
#
DISCID=5e052908
DTITLE=Go Go Ghouls - Single Collection
DYEAR=08
DGENRE=
TTITLE0=A Fool I Was
TTITLE1=Come Closer
TTITLE2=Your Burned My Soul
TTITLE3=Teenie
TTITLE4=Pay And Love
TTITLE5=Oh Mio My
TTITLE6=She Was Out
TTITLE7=Train Song
EXTD=
EXTT0=
EXTT1=
EXTT2=
EXTT3=
EXTT4=
EXTT5=
EXTT6=
EXTT7=
PLAYORDER=
